# xmcd CD database file
#
# Track frame offsets:
#	150
#	17041
#	30355
#	42874
#	64798
#	82682
#	96735
#	113264
#	129671
#	150832
#	165128
#	180576
#
# Disc length: 2684 seconds
#
# Revision: 0
# Processed by: cddbd v1.4PL0 Copyright (c) Steve Scherf et al.
# Submitted via: CDex 1.40Release
#
DISCID=7a0a7a0c
DTITLE=Various Artist - A Tribute to Shania Twain V.2
DYEAR=2002
DGENRE=Country
TTITLE0=Two Hearts One Love
TTITLE1=Come On Over
TTITLE2=God Ain't Gonna Getcha For That
TTITLE3=Woman In Me
TTITLE4=God Bless The Child
TTITLE5=No One Needs To Know
TTITLE6=Honey I'm Home
TTITLE7=Love Gets Me Everytime
TTITLE8=Raining On Our Love
TTITLE9=Still Under Weather
TTITLE10=I'm Holdin' On To Love (To Save My Life)
TTITLE11=If You're Not In It For The Love (I'm Outta Here)
EXTD=YEAR: 2002 ID3G: 2
EXTT0=
EXTT1=
EXTT2=
EXTT3=
EXTT4=
EXTT5=
EXTT6=
EXTT7=
EXTT8=
EXTT9=
EXTT10=
EXTT11=
PLAYORDER=
